<?xml version="1.0" standalone="no"?>
<!DOCTYPE svg PUBLIC "-//W3C//DTD SVG 20010904//EN"
 "http://www.w3.org/TR/2001/REC-SVG-20010904/DTD/svg10.dtd">
<svg version="1.0" xmlns="http://www.w3.org/2000/svg"
 width="1306.000000pt" height="1306.000000pt" viewBox="0 0 1306.000000 1306.000000"
 preserveAspectRatio="xMidYMid meet">
<metadata>
Created by potrace 1.11, written by Peter Selinger 2001-2013
</metadata>
<g transform="translate(0.000000,1306.000000) scale(0.100000,-0.100000)"
fill="#000000" stroke="none">
<path d="M5848 13054 c-2 -1 -32 -4 -68 -8 -73 -6 -276 -61 -370 -101 -297
-125 -512 -336 -659 -648 -40 -84 -68 -154 -76 -190 -2 -9 -6 -21 -9 -25 -22
-36 -35 -305 -22 -467 12 -150 43 -251 128 -418 163 -319 409 -532 741 -642
56 -18 120 -36 142 -40 22 -3 47 -7 55 -10 54 -14 286 -22 360 -12 112 17 216
41 265 62 17 7 46 18 65 26 79 29 220 104 294 157 86 62 190 168 272 277 150
200 241 488 238 755 -1 100 -18 273 -29 290 -2 4 -6 17 -8 31 -8 41 -57 179
-84 238 -90 191 -239 364 -425 491 -47 33 -89 60 -92 60 -4 0 -23 10 -44 23
-90 56 -320 128 -452 142 -68 7 -218 13 -222 9z"/>
<path d="M6938 10185 c-2 -2 -32 -6 -68 -9 -84 -9 -141 -37 -214 -105 -81 -78
-111 -142 -115 -251 -2 -47 -5 -103 -5 -124 -3 -69 15 -168 39 -215 29 -58
117 -142 176 -168 63 -28 124 -35 271 -34 173 2 239 25 322 115 82 89 109 173
109 337 -1 171 -34 260 -130 349 -92 86 -155 109 -292 108 -50 -1 -92 -2 -93
-3z"/>
<path d="M6499 9206 c-2 -2 -38 -7 -79 -11 -41 -4 -83 -9 -93 -11 -10 -1 -50
-6 -90 -9 -39 -3 -83 -8 -97 -10 -14 -2 -61 -6 -105 -10 -263 -22 -414 -48
-560 -97 -184 -61 -297 -129 -403 -243 -57 -61 -72 -84 -83 -127 -17 -72 -15
-182 4 -248 20 -69 42 -101 222 -330 165 -210 251 -335 320 -465 27 -49 80
-139 119 -200 75 -118 97 -175 142 -370 52 -231 53 -238 49 -475 -7 -402 -17
-663 -30 -725 -34 -175 -42 -234 -50 -380 -17 -292 -41 -406 -140 -663 -36
-94 -76 -219 -90 -276 -30 -126 -57 -201 -117 -321 -25 -49 -68 -153 -96 -230
-125 -347 -292 -671 -453 -879 -33 -43 -124 -153 -133 -161 -6 -5 -34 -37 -61
-69 -28 -33 -97 -105 -154 -160 -87 -85 -138 -143 -244 -276 -514 -646 -579
-743 -731 -1083 -79 -177 -102 -240 -127 -342 -64 -263 -29 -568 70 -620 48
-24 191 -67 271 -81 14 -3 32 -7 40 -9 18 -5 203 -32 275 -40 44 -4 129 -14
285 -31 25 -2 56 -7 70 -9 14 -3 43 -7 65 -10 22 -3 63 -10 90 -15 28 -5 66
-12 85 -15 19 -3 42 -8 50 -10 8 -2 35 -6 60 -9 25 -3 56 -8 70 -11 14 -3 48
-7 75 -10 28 -3 57 -8 65 -10 8 -2 44 -7 80 -10 36 -4 67 -8 70 -10 3 -2 45
-6 93 -10 49 -3 98 -8 110 -10 12 -2 56 -7 97 -10 41 -3 91 -8 110 -10 19 -2
82 -6 140 -10 58 -3 123 -8 145 -10 22 -3 85 -7 140 -10 55 -3 123 -7 150 -10
28 -2 104 -7 170 -10 66 -3 147 -8 180 -10 33 -3 92 -7 130 -9 39 -3 113 -8
165 -12 121 -10 208 -10 455 0 110 4 250 9 310 11 61 2 166 7 235 10 69 3 181
7 250 10 215 9 286 15 367 30 43 8 94 17 113 20 19 3 54 10 78 16 23 5 59 12
80 15 20 3 40 8 43 10 3 2 19 6 35 8 281 52 717 213 803 297 33 34 91 112 91
124 0 4 6 21 14 38 42 94 45 281 7 400 -24 75 -164 355 -331 662 -15 28 -58
111 -95 185 -56 111 -202 351 -224 370 -4 3 -31 39 -61 80 -30 41 -59 80 -63
85 -39 47 -141 202 -230 350 -60 99 -147 243 -194 320 -97 158 -98 160 -183
310 -34 61 -65 117 -70 125 -20 35 -101 200 -128 260 -16 36 -76 137 -134 225
-284 433 -411 660 -512 915 -21 52 -42 104 -47 115 -20 49 -86 266 -104 345
-22 98 -51 259 -60 335 -4 28 -8 61 -11 75 -2 14 -6 52 -10 85 -3 33 -14 103
-24 155 -10 52 -21 114 -24 138 -3 23 -8 60 -11 82 -12 82 -3 702 10 780 14
78 25 109 106 300 29 69 78 208 109 310 32 102 76 237 99 300 46 127 98 311
107 380 3 25 9 61 13 80 15 69 10 252 -9 326 -37 144 -130 284 -225 340 -77
45 -343 111 -560 140 -27 3 -57 8 -66 9 -9 2 -59 6 -110 10 -52 4 -97 8 -100
11 -3 2 -8 2 -10 0z"/>
</g>
</svg>
